<svg width="900" height="1360" viewBox="0 0 900 1360" fill="none" xmlns="http://www.w3.org/2000/svg">
  <rect width="900" height="1360" fill="white"/>
  <rect x="36" y="36" width="828" height="1288" rx="8" fill="white" stroke="#0A0A0A" stroke-width="4"/>
  <rect x="72" y="74" width="170" height="46" rx="4" fill="#0A0A0A"/>
  <text x="94" y="104" fill="white" font-family="Inter, Arial, sans-serif" font-size="22" font-weight="700">What we build</text>
  <text x="72" y="174" fill="#0A0A0A" font-family="Inter, Arial, sans-serif" font-size="46" font-weight="700">From backhaul to</text>
  <text x="72" y="228" fill="#0A0A0A" font-family="Inter, Arial, sans-serif" font-size="46" font-weight="700">live operations.</text>
  <text x="72" y="270" fill="#525252" font-family="Inter, Arial, sans-serif" font-size="24">The link, the local network, and the</text>
  <text x="72" y="302" fill="#525252" font-family="Inter, Arial, sans-serif" font-size="24">operating layer are built as one system.</text>
  <path d="M450 348V1120" stroke="#0F6FFF" stroke-width="4"/>
  <circle cx="450" cy="390" r="10" fill="#0F6FFF"/>
  <circle cx="450" cy="584" r="10" fill="#0F6FFF"/>
  <circle cx="450" cy="778" r="10" fill="#0F6FFF"/>
  <circle cx="450" cy="972" r="10" fill="#0F6FFF"/>
  <rect x="72" y="354" width="756" height="156" rx="8" fill="#FAFAFA" stroke="#0A0A0A" stroke-width="3"/>
  <text x="108" y="398" fill="#0F6FFF" font-family="Inter, Arial, sans-serif" font-size="18" font-weight="700">01</text>
  <text x="108" y="438" fill="#0A0A0A" font-family="Inter, Arial, sans-serif" font-size="30" font-weight="700">Satellite backhaul</text>
  <text x="108" y="476" fill="#525252" font-family="Inter, Arial, sans-serif" font-size="22">Primary connectivity for sites where</text>
  <text x="108" y="506" fill="#525252" font-family="Inter, Arial, sans-serif" font-size="22">stable terrestrial service cannot be trusted.</text>
  <circle cx="732" cy="434" r="34" stroke="#0F6FFF" stroke-width="8"/>
  <path d="M706 460L758 408" stroke="#0F6FFF" stroke-width="8" stroke-linecap="round"/>
  <rect x="72" y="548" width="756" height="156" rx="8" fill="#FAFAFA" stroke="#0A0A0A" stroke-width="3"/>
  <text x="108" y="592" fill="#0F6FFF" font-family="Inter, Arial, sans-serif" font-size="18" font-weight="700">02</text>
  <text x="108" y="632" fill="#0A0A0A" font-family="Inter, Arial, sans-serif" font-size="30" font-weight="700">Edge and routing</text>
  <text x="108" y="670" fill="#525252" font-family="Inter, Arial, sans-serif" font-size="22">On-site equipment set up around traffic,</text>
  <text x="108" y="700" fill="#525252" font-family="Inter, Arial, sans-serif" font-size="22">power limits, and site conditions.</text>
  <rect x="678" y="604" width="88" height="56" rx="4" stroke="#0F6FFF" stroke-width="8"/>
  <path d="M722 604V660" stroke="#0F6FFF" stroke-width="8"/>
  <path d="M678 632H766" stroke="#0F6FFF" stroke-width="8"/>
  <rect x="72" y="742" width="756" height="156" rx="8" fill="#FAFAFA" stroke="#0A0A0A" stroke-width="3"/>
  <text x="108" y="786" fill="#0F6FFF" font-family="Inter, Arial, sans-serif" font-size="18" font-weight="700">03</text>
  <text x="108" y="826" fill="#0A0A0A" font-family="Inter, Arial, sans-serif" font-size="30" font-weight="700">Site network</text>
  <text x="108" y="864" fill="#525252" font-family="Inter, Arial, sans-serif" font-size="22">Distribution across wards, offices,</text>
  <text x="108" y="894" fill="#525252" font-family="Inter, Arial, sans-serif" font-size="22">branches, campuses, and shared areas.</text>
  <path d="M674 840H770" stroke="#0F6FFF" stroke-width="8" stroke-linecap="round"/>
  <path d="M722 806V874" stroke="#0F6FFF" stroke-width="8" stroke-linecap="round"/>
  <circle cx="674" cy="840" r="10" fill="#0F6FFF"/>
  <circle cx="770" cy="840" r="10" fill="#0F6FFF"/>
  <circle cx="722" cy="806" r="10" fill="#0F6FFF"/>
  <circle cx="722" cy="874" r="10" fill="#0F6FFF"/>
  <rect x="72" y="936" width="756" height="156" rx="8" fill="#FAFAFA" stroke="#0A0A0A" stroke-width="3"/>
  <text x="108" y="980" fill="#0F6FFF" font-family="Inter, Arial, sans-serif" font-size="18" font-weight="700">04</text>
  <text x="108" y="1020" fill="#0A0A0A" font-family="Inter, Arial, sans-serif" font-size="30" font-weight="700">Billing and operations</text>
  <text x="108" y="1058" fill="#525252" font-family="Inter, Arial, sans-serif" font-size="22">Usage rules, monitoring, support, and</text>
  <text x="108" y="1088" fill="#525252" font-family="Inter, Arial, sans-serif" font-size="22">service workflows built into the rollout.</text>
  <path d="M676 1018H780" stroke="#0F6FFF" stroke-width="8" stroke-linecap="round"/>
  <path d="M710 986L676 1018L710 1050" stroke="#0F6FFF" stroke-width="8" stroke-linecap="round" stroke-linejoin="round"/>
  <path d="M746 986L780 1018L746 1050" stroke="#0F6FFF" stroke-width="8" stroke-linecap="round" stroke-linejoin="round"/>
  <rect x="72" y="1160" width="756" height="104" rx="8" fill="#0A0A0A"/>
  <text x="104" y="1216" fill="white" font-family="Inter, Arial, sans-serif" font-size="26" font-weight="700">CloudBridge stays accountable from</text>
  <text x="104" y="1250" fill="white" font-family="Inter, Arial, sans-serif" font-size="26" font-weight="700">first link design to daily service continuity.</text>
</svg>
